<?xml version="1.0" encoding="utf-8"?>
<!-- Generator: Adobe Illustrator 15.0.2, SVG Export Plug-In . SVG Version: 6.00 Build 0)  -->
<!DOCTYPE svg PUBLIC "-//W3C//DTD SVG 1.1//EN" "http://www.w3.org/Graphics/SVG/1.1/DTD/svg11.dtd">
<svg version="1.1" id="Layer_1" xmlns="http://www.w3.org/2000/svg" xmlns:xlink="http://www.w3.org/1999/xlink" x="0px" y="0px"
	 width="800px" height="600px" viewBox="0 0 800 600" enable-background="new 0 0 800 600" xml:space="preserve">
<g enable-background="new    ">
	<path fill="#F4852A" d="M-34.75,44.5v-8.1l10.35-10.05C0.498,2.651,11.898-9.948,11.898-24.647c0-9.899-4.65-19.049-19.199-19.049
		c-8.85,0-16.2,4.5-20.699,8.25l-4.2-9.3c6.6-5.55,16.349-9.899,27.449-9.899c20.999,0,29.849,14.399,29.849,28.349
		c0,17.999-13.049,32.549-33.599,52.348l-7.649,7.199v0.301h43.648V44.5H-34.75z"/>
</g>
<g enable-background="new    ">
	<path fill="none" stroke="#BFFDFF" stroke-miterlimit="10" d="M-34.75,44.5v-8.1l10.35-10.05
		C0.498,2.651,11.898-9.948,11.898-24.647c0-9.899-4.65-19.049-19.199-19.049c-8.85,0-16.2,4.5-20.699,8.25l-4.2-9.3
		c6.6-5.55,16.349-9.899,27.449-9.899c20.999,0,29.849,14.399,29.849,28.349c0,17.999-13.049,32.549-33.599,52.348l-7.649,7.199
		v0.301h43.648V44.5H-34.75z"/>
</g>
</svg>
