<?xml version="1.0" encoding="utf-8"?>
<!-- Generator: Adobe Illustrator 15.0.2, SVG Export Plug-In . SVG Version: 6.00 Build 0)  -->
<!DOCTYPE svg PUBLIC "-//W3C//DTD SVG 1.1//EN" "http://www.w3.org/Graphics/SVG/1.1/DTD/svg11.dtd">
<svg version="1.1" id="Layer_1" xmlns="http://www.w3.org/2000/svg" xmlns:xlink="http://www.w3.org/1999/xlink" x="0px" y="0px"
	 width="800px" height="600px" viewBox="0 0 800 600" enable-background="new 0 0 800 600" xml:space="preserve">
<g enable-background="new    ">
	<path fill="#F4852A" d="M-31.601,29.501c3.75,2.25,12.3,5.999,21.599,5.999c16.799,0,22.199-10.649,22.049-18.898
		c-0.15-13.649-12.45-19.5-25.199-19.5h-7.35v-9.899h7.35c9.6,0,21.75-4.949,21.75-16.499c0-7.8-4.95-14.699-17.1-14.699
		c-7.799,0-15.299,3.449-19.499,6.449l-3.6-9.6c5.25-3.75,15.149-7.499,25.649-7.499c19.199,0,27.899,11.399,27.899,23.249
		c0,10.199-6.149,18.749-17.999,23.099v0.3c12,2.25,21.599,11.25,21.749,24.899c0,15.599-12.299,29.249-35.548,29.249
		c-10.95,0-20.549-3.45-25.349-6.601L-31.601,29.501z"/>
</g>
<g enable-background="new    ">
	<path fill="none" stroke="#BFFDFF" stroke-miterlimit="10" d="M-31.601,29.501c3.75,2.25,12.3,5.999,21.599,5.999
		c16.799,0,22.199-10.649,22.049-18.898c-0.15-13.649-12.45-19.5-25.199-19.5h-7.35v-9.899h7.35c9.6,0,21.75-4.949,21.75-16.499
		c0-7.8-4.95-14.699-17.1-14.699c-7.799,0-15.299,3.449-19.499,6.449l-3.6-9.6c5.25-3.75,15.149-7.499,25.649-7.499
		c19.199,0,27.899,11.399,27.899,23.249c0,10.199-6.149,18.749-17.999,23.099v0.3c12,2.25,21.599,11.25,21.749,24.899
		c0,15.599-12.299,29.249-35.548,29.249c-10.95,0-20.549-3.45-25.349-6.601L-31.601,29.501z"/>
</g>
</svg>
