<?xml version="1.0" encoding="utf-8"?>
<!-- Generator: Adobe Illustrator 15.0.2, SVG Export Plug-In . SVG Version: 6.00 Build 0)  -->
<!DOCTYPE svg PUBLIC "-//W3C//DTD SVG 1.1//EN" "http://www.w3.org/Graphics/SVG/1.1/DTD/svg11.dtd">
<svg version="1.1" id="Layer_1" xmlns="http://www.w3.org/2000/svg" xmlns:xlink="http://www.w3.org/1999/xlink" x="0px" y="0px"
	 width="800px" height="600px" viewBox="0 0 800 600" enable-background="new 0 0 800 600" xml:space="preserve">
<path fill="none" stroke="#33003D" stroke-width="10" stroke-miterlimit="10" d="M839.973,247.943
	c0,242.517-196.59,439.107-439.106,439.107c-230.381,0-417.152-186.771-417.152-417.152c0-218.867,177.422-396.29,396.291-396.29
	c207.933,0,376.479,168.546,376.479,376.479c0,197.534-160.121,357.653-357.654,357.653c-187.65,0-339.771-152.122-339.771-339.772
	c0-178.28,144.51-322.791,322.791-322.791c169.337,0,306.646,137.285,306.646,306.646c0,160.892-130.426,291.315-291.316,291.315
	c-152.852,0-276.758-123.905-276.758-276.736c0-145.219,117.709-262.929,262.928-262.929c137.93,0,249.742,111.835,249.742,249.764
	c0,131.046-106.217,237.285-237.264,237.285c-124.484,0-225.406-100.922-225.406-225.407c0-118.268,95.861-214.15,214.129-214.15
	c112.351,0,203.43,91.08,203.43,203.431c0,106.732-86.514,193.267-193.246,193.267c-101.393,0-183.598-82.203-183.598-183.597
	c0-96.334,78.088-174.422,174.422-174.422c91.51,0,165.693,74.186,165.693,165.695c0,86.942-70.475,157.418-157.418,157.418
	c-82.59,0-149.549-66.96-149.549-149.55c0-78.451,63.615-142.066,142.066-142.066c74.549,0,134.971,60.441,134.971,134.97
	c0,70.798-57.398,128.216-128.217,128.216c-67.26,0-121.805-54.545-121.805-121.805c0-63.915,51.801-115.716,115.715-115.716
	c60.699,0,109.928,49.228,109.928,109.927c0,57.676-46.763,104.438-104.438,104.438c-54.781,0-99.207-44.425-99.207-99.206
	c0-52.059,42.195-94.254,94.254-94.254c49.441,0,89.537,40.095,89.537,89.537c0,46.978-38.08,85.056-85.057,85.056
	c-44.639,0-80.811-36.191-80.811-80.811c0-42.389,34.369-76.758,76.758-76.758c40.287,0,72.941,32.654,72.941,72.92
	c0,38.271-31.023,69.274-69.295,69.274c-36.344,0-65.803-29.459-65.803-65.802c0-34.541,27.98-62.521,62.521-62.521
	c32.806,0,59.392,26.586,59.392,59.391c0,31.153-25.259,56.433-56.433,56.433c-29.609,0-53.602-24.014-53.602-53.624
	c0-28.108,22.791-50.922,50.922-50.922c26.735,0,48.391,21.655,48.391,48.393"/>
</svg>
