<?xml version="1.0" encoding="utf-8"?>
<!-- Generator: Adobe Illustrator 15.0.2, SVG Export Plug-In . SVG Version: 6.00 Build 0)  -->
<!DOCTYPE svg PUBLIC "-//W3C//DTD SVG 1.1//EN" "http://www.w3.org/Graphics/SVG/1.1/DTD/svg11.dtd">
<svg version="1.1" id="Layer_1" xmlns="http://www.w3.org/2000/svg" xmlns:xlink="http://www.w3.org/1999/xlink" x="0px" y="0px"
	 width="800px" height="600px" viewBox="0 0 800 600" enable-background="new 0 0 800 600" xml:space="preserve">
<path fill="none" stroke="#0000FF" stroke-width="9" stroke-miterlimit="10" d="M66.526,40.526
	c-24.039,24.039-63.013,24.039-87.052,0c-19.231-19.231-19.231-50.411,0-69.642c15.385-15.385,40.329-15.385,55.713,0
	c12.308,12.308,12.308,32.263,0,44.571c-9.846,9.846-25.81,9.846-35.656,0c-7.877-7.877-7.877-20.648,0-28.525
	c6.302-6.301,16.519-6.301,22.82,0c5.041,5.042,5.041,13.215,0,18.256c-4.033,4.033-10.572,4.033-14.605,0
	c-3.227-3.227-3.227-8.458,0-11.684c2.581-2.581,6.766-2.581,9.347,0c2.065,2.065,2.065,5.413,0,7.478
	c-1.652,1.652-4.33,1.652-5.982,0c-1.321-1.322-1.321-3.464,0-4.786c1.058-1.057,2.771-1.057,3.829,0
	c0.846,0.846,0.846,2.217,0,3.063c-0.676,0.677-1.773,0.677-2.45,0c-0.541-0.542-0.541-1.419,0-1.96"/>
</svg>
